{"title":"The Devil's Whore 2008 DVD9rip English Klam","uid":6176311,"size":2097368706,"categoryP":"video","categoryS":"movies","magnet":"?xt=urn:btih:759d5a5284a5be8021f18708d40c6f1911423694&amp;dn=The+Devil%5C%27s+Whore+2008+DVD9rip+English+Klam&amp;tr=udp%3A%2F%2Ftracker.openbittorrent.com%3A80&amp;tr=udp%3A%2F%2Fopen.demonii.com%3A1337&amp;tr=udp%3A%2F%2Ftracker.coppersurfer.tk%3A6969&amp;tr=udp%3A%2F%2Fexodus.desync.com%3A6969","seeders":3,"leechers":4,"uploader":"Klambake","files":-1,"time":1297782438,"description":"With: Andrea Riseborough, Dominic West en John Simm\n\nSet between the years 1642 and 1660, &quot;The Devil's Whore&quot; charts the progress of the English Civil War through the eyes of the a 17 year old girl, the fictional Angelica Fanshawe. \n\nGeneral:\n\nComplete name                    : The Devil's Whore\\The Devil's Whore Part1.avi\nFormat                           : AVI\nFormat/Info                      : Audio Video Interleave\nFile size                        : 1 000 MiB\nDuration                         : 1h 30mn\nOverall bit rate                 : 1 543 Kbps\n\nVideo:\n\nFormat                           : MPEG-4 Visual\nFormat profile                   : Simple@L3\nFormat settings, BVOP            : No\nFormat settings, QPel            : No\nFormat settings, GMC             : No warppoints\nFormat settings, Matrix          : Default (H.263)\nCodec ID                         : XVID\nCodec ID/Hint                    : XviD\nDuration                         : 1h 30mn\nBit rate                         : 1 340 Kbps\nWidth                            : 704 pixels\nHeight                           : 394 pixels\nDisplay aspect ratio             : 16:9\nFrame rate                       : 25.000 fps\nColor space                      : YUV\nChroma subsampling               : 4:2:0\nBit depth                        : 8 bits\nScan type                        : Progressive\nBits/(Pixel*Frame)               : 0.193\nStream size                      : 868 MiB (87%)\nWriting library                  : XviD 1.1.2 (UTC 2006-11-01)\n\nAudio:\n\nFormat                           : AC-3\nFormat/Info                      : Audio Coding 3\nMode extension                   : CM (complete main)\nCodec ID                         : 2000\nDuration                         : 1h 30mn\nBit rate mode                    : Constant\nBit rate                         : 192 Kbps\nChannel(s)                       : 2 channels\nChannel positions                : Front: L R\nSampling rate                    : 48.0 KHz\nBit depth                        : 16 bits\nStream size                      : 124 MiB (12%)\nAlignment                        : Aligned on interleaves\nInterleave, duration             : 32 ms (0.80 video frame)\nInterleave, preload duration     : 768 ms\n","torrent":{"xt":"urn:btih:759d5a5284a5be8021f18708d40c6f1911423694","amp;dn":"The+Devil%5C%27s+Whore+2008+DVD9rip+English+Klam","amp;tr":["udp%3A%2F%2Ftracker.openbittorrent.com%3A80","udp%3A%2F%2Fopen.demonii.com%3A1337","udp%3A%2F%2Ftracker.coppersurfer.tk%3A6969","udp%3A%2F%2Fexodus.desync.com%3A6969"],"infoHash":"759d5a5284a5be8021f18708d40c6f1911423694","infoHashBuffer":{"type":"Buffer","data":[117,157,90,82,132,165,190,128,33,241,135,8,212,12,111,25,17,66,54,148]},"announce":[],"urlList":[]}}